<svg xmlns="http://www.w3.org/2000/svg" width="27.991" height="41.419">
  <path d="M12.73 24.979a2.521 2.521 0 00-1.555-2.207l-9.621-3.445A1.089 1.089 0 000 20.42v14.86a2.615 2.615 0 001.537 2.252l9.654 3.78a1.051 1.051 0 001.537-1.048V24.979zM15.942 19.523a2.032 2.032 0 011.627-1.929l8.8-1.506a1.348 1.348 0 011.627 1.372v14.3a2.051 2.051 0 01-1.625 1.941l-8.8 1.566a1.338 1.338 0 01-1.625-1.361zM7.906 6.697a3.205 3.205 0 011.423-2.488L16.131.197c.783-.461 1.423-.094 1.423.813v11.07a3.142 3.142 0 01-1.435 2.466l-6.776 3.851c-.789.448-1.435.072-1.435-.835V6.697z"/>
</svg>